<svg width="243" height="32" viewBox="0 0 243 32" fill="none" xmlns="http://www.w3.org/2000/svg">
<path d="M151.817 5.72308H142.068V31.3141H135.3V5.72308H125.551V0.0881481H151.817V5.72308Z" fill="#0158AB"/>
<path d="M151.851 15.6883C151.851 7.58439 155.925 0.0175781 166.75 0.0175781C177.573 0.0175781 181.606 7.62962 181.606 15.6883C181.606 23.8818 177.573 31.3138 166.75 31.3138C155.925 31.3138 151.851 23.9263 151.851 15.6883ZM166.75 25.7176C172.947 25.7176 174.899 22.1809 174.899 15.6883C174.899 9.1068 172.947 5.56932 166.75 5.56932C160.552 5.56932 158.6 9.1068 158.6 15.6883C158.6 22.1809 160.552 25.7176 166.75 25.7176Z" fill="#0158AB"/>
<path d="M24.0912 15.2004C27.476 14.4485 30.193 12.3817 30.193 7.77814C30.193 3.55012 27.6545 0.0740223 21.3299 0.0740223H4.81356H0C0 0.0740223 4.78852 5.12503 4.81356 5.15168V31.3137H21.0189C27.3428 31.3137 30.235 28.0718 30.235 22.8108C30.235 17.8309 27.7878 15.8118 24.0912 15.2004ZM11.5768 5.47635H19.3261C22.1319 5.47635 23.1115 6.79201 23.1115 9.18748C23.1115 11.4424 22.043 12.9454 19.1032 12.9454H11.5768V5.47635ZM19.5046 25.8645H11.5768V17.7372H19.1032C22.3548 17.7372 23.5574 19.3347 23.5574 21.8247C23.5574 24.1265 22.5325 25.8645 19.5046 25.8645Z" fill="#0158AB"/>
<path d="M213.119 0.0887127V31.3138H201.902L192.642 9.99608C191.974 8.39856 191.394 6.80427 190.95 5.20756V31.3138H184.45V5.15345C184.432 5.13407 179.654 0.0951748 179.654 0.0951748H184.45L195.67 0.0887127L205.018 21.7352C205.551 23.0492 206.13 24.6459 206.619 26.2426V0.0887127H213.119Z" fill="#0158AB"/>
<path d="M243 25.6309V31.3135H219.628V5.14665C219.61 5.12727 214.833 0.088377 214.833 0.088377H242.867V5.72169H226.395V12.7183H241.532V18.0253H226.395V25.6309H243Z" fill="#0158AB"/>
<path d="M82.0774 -3.8147e-06H66.9922C66.9922 -3.8147e-06 69.0695 2.19356 70.4893 3.69093L61.2749 31.314H68.1043L70.247 24.9093H83.5521L85.6948 31.314H92.5251L82.0774 -3.8147e-06ZM72.0788 19.4012L76.8988 4.94358L81.7212 19.4012H72.0788Z" fill="#0158AB"/>
<path d="M58.709 23.6932C58.709 19.1785 56.345 17.5801 53.3123 16.779C56.8352 15.9794 59.5118 13.0153 59.5118 8.59591C59.5118 3.51422 56.257 0.0348892 49.7013 0.0348892C49.7013 0.0348892 34.05 0.0324669 34.0476 0.0324669H29.2275C29.2275 0.0324669 34.029 5.0972 34.0476 5.11658V31.3133H40.8705V19.2237H46.9812C49.9234 19.2237 51.9312 20.7308 51.9312 24.2577V25.9037C51.9312 28.4906 52.1533 30.1842 52.5095 31.3133H59.2897C58.9763 29.8087 58.709 28.3969 58.709 25.8108V23.6932ZM48.1838 14.0984H40.8705V5.5834H48.1838C51.1284 5.5834 52.4215 6.99516 52.4215 9.6297C52.4215 12.5461 51.2617 14.0984 48.1838 14.0984Z" fill="#0158AB"/>
<path d="M100.825 0.128469L108.916 15.7208L100.825 31.314H94.29L102.381 15.7208L94.29 0.128469H100.825Z" fill="#0158AB"/>
<path d="M115.453 15.7211L123.544 31.3135H117.008L108.917 15.7211L117.008 0.128759H123.544L115.453 15.7211Z" fill="#0158AB"/>
</svg>
